Coordinates
version=1
nRows=8
nColumns=40
inDegrees=yes

Units are S.I. units (second, meters, Newtons, ...)
Angles are in degrees.

endheader
time	pelvis_tilt	pelvis_list	pelvis_rotation	pelvis_tx	pelvis_ty	pelvis_tz	hip_flexion_r	hip_adduction_r	hip_rotation_r	knee_angle_r	knee_angle_r_beta	ankle_angle_r	subtalar_angle_r	mtp_angle_r	hip_flexion_l	hip_adduction_l	hip_rotation_l	knee_angle_l	knee_angle_l_beta	ankle_angle_l	subtalar_angle_l	mtp_angle_l	lumbar_extension	lumbar_bending	lumbar_rotation	arm_flex_r	arm_add_r	arm_rot_r	elbow_flex_r	pro_sup_r	wrist_flex_r	wrist_dev_r	arm_flex_l	arm_add_l	arm_rot_l	elbow_flex_l	pro_sup_l	wrist_flex_l	wrist_dev_l
     56.33650000	     -6.90356426	     -7.29061278	      4.80702617	      0.98488687	      0.91063070	      0.45563304	     -0.23969600	      5.54974721	    -16.43686131	      8.98329520	      8.98329520	     18.41399354	      6.18026033	     -2.11348204	     38.07413042	     -8.32899895	      2.29744494	     21.27214988	     21.27214988	      6.57494426	     -8.33890330	     13.21639012	     -9.82594627	      5.80283189	      5.24509416	     45.86475342	    -14.72274867	     -1.03083392	     87.18209083	     44.23189209	      0.00000000	      0.00000000	    -18.33667569	     -5.29831734	      7.41738356	     28.12743000	     44.49625386	      0.00000000	      0.00000000
     56.34800000	     -6.81013604	     -7.31448130	      4.57603368	      0.98714409	      0.90848021	      0.45376533	     -0.63839952	      5.39721152	    -15.74964839	      9.92021976	      9.92021976	     19.79010030	      5.49812840	     -0.57430367	     37.37649924	     -8.44600454	      1.42042617	     20.90379495	     20.90379495	      4.31331099	     -9.35949139	      9.44721765	     -9.61479925	      5.74740023	      5.68284707	     45.21420991	    -15.17891055	     -1.24415790	     91.06724560	     44.17869967	      0.00000000	      0.00000000	    -18.51148046	     -5.36801677	      7.89888548	     28.05621970	     44.47877138	      0.00000000	      0.00000000
     56.35950000	     -6.76209086	     -7.15335714	      4.37162130	      0.98918642	      0.90655309	      0.45173661	     -0.85666797	      4.97189671	    -15.27832891	     11.06117241	     11.06117241	     20.67518650	      4.90421741	     -0.56935232	     36.94335746	     -8.40049429	      0.48033953	     21.25929699	     21.25929699	      3.19272153	     -9.98613722	      8.38062050	     -9.33010890	      5.47294250	      5.10680494	     45.36051155	    -14.38168995	     -1.12062044	     92.56693587	     44.15151370	      0.00000000	      0.00000000	    -18.78836528	     -5.23175276	      8.21756941	     27.63475909	     44.44814279	      0.00000000	      0.00000000
     56.37100000	     -6.56853649	     -7.00033356	      4.21593840	      0.99123111	      0.90504514	      0.44958054	     -1.12465077	      4.58277070	    -14.46406558	     12.38709361	     12.38709361	     21.58690855	      3.75895190	      0.06459293	     36.33281096	     -8.32092981	     -0.18077718	     21.66763653	     21.66763653	      1.12533395	    -11.26988219	      4.64184294	     -9.27061060	      5.23422624	      5.32570528	     44.81224038	    -14.61562620	     -1.32990965	     95.34146507	     44.14260445	      0.00000000	      0.00000000	    -18.47823544	     -5.33817988	      8.86868913	     27.06330919	     44.41934362	      0.00000000	      0.00000000
     56.38250000	     -6.39258376	     -6.78820611	      4.11374086	      0.99289964	      0.90389323	      0.44725365	     -1.15818213	      4.02268616	    -14.06874997	     14.06362337	     14.06362337	     22.14264064	      2.99794145	     -0.31769040	     36.05330308	     -8.17361958	     -0.69082196	     22.80548855	     22.80548855	      0.68223594	    -11.90608280	      4.16798040	     -9.23524400	      4.93530383	      4.69712832	     44.84662973	    -13.97816767	     -1.18547703	     96.47897450	     44.11331374	      0.00000000	      0.00000000	    -18.40681968	     -5.29182130	      9.03648872	     26.82448954	     44.40533509	      0.00000000	      0.00000000
     56.39400000	     -6.04059925	     -6.53206456	      4.09601346	      0.99466851	      0.90363355	      0.44472521	     -1.54588677	      3.47629387	    -13.77970312	     15.38930511	     15.38930511	     22.35617040	      2.33429000	     -0.57254600	     35.56890089	     -7.94500285	     -1.00118505	     24.00756082	     24.00756082	      0.55839804	    -12.47008051	      3.82736711	     -9.35682410	      4.55304329	      4.20078696	     44.35195163	    -13.65491055	     -1.03469548	     97.06309783	     44.09230006	      0.00000000	      0.00000000	    -18.00231962	     -5.34041861	      9.10139786	     26.77681574	     44.40629036	      0.00000000	      0.00000000
     56.40550000	     -6.20365405	     -6.24525951	      3.97954650	      0.99545379	      0.90267706	      0.44222202	     -0.30935078	      2.69340693	    -12.86937368	     18.62595110	     18.62595110	     22.55756326	      0.15539861	     -1.46421347	     35.66650129	     -7.63338798	     -1.15458506	     25.17182576	     25.17182576	      0.39726062	    -13.15854292	      2.98440124	     -9.12846799	      4.18492637	      3.81891855	     43.70534742	    -13.39237423	     -0.85823994	     99.68877247	     44.02133581	      0.00000000	      0.00000000	    -17.42100636	     -5.36918628	      9.36613496	     26.19993531	     44.39497710	      0.00000000	      0.00000000
     56.41700000	     -6.07152105	     -5.97638060	      3.93718022	      0.99632331	      0.90277243	      0.43953614	      0.39654787	      1.98475535	    -12.36035312	     21.40361478	     21.40361478	     22.32668760	     -1.43040982	     -2.32883149	     35.39669142	     -7.32714674	     -1.22110772	     26.27615224	     26.27615224	      0.69007706	    -13.60950234	      2.47224677	     -9.21604675	      3.84822362	      3.57720312	     42.94529457	    -13.44287915	     -0.82820310	    101.35359673	     43.98079509	      0.00000000	      0.00000000	    -16.43759050	     -5.44011556	      9.57488353	     25.85923002	     44.39412167	      0.00000000	      0.00000000
